# xmcd
#
# Track frame offsets: 
#        150
#        24378
#        43559
#        60002
#        77417
#        99437
#        115431
#        132511
#        148338
#        172435
#        190169
#        211589
#        231096
#        277644
#
# Disc length: 4100 seconds
#
# Revision: 0
# Processed by: cddbd v1.5.2PL0 Copyright (c) Steve Scherf et al.
# Submitted via: ExactAudioCopy v1.1
#
DISCID=b910020e
DTITLE=Keith Urban - Golden Road
DYEAR=2002
DGENRE=Country
TTITLE0=Somebody Like You
TTITLE1=Who Wouldn't Wanna Be Me
TTITLE2=Whenever I Run
TTITLE3=What About Me
TTITLE4=You'll Think Of Me
TTITLE5=Jeans On
TTITLE6=You Look Good In My Shirt
TTITLE7=You're Not Alone Tonight
TTITLE8=You Won
TTITLE9=Song For Dad
TTITLE10=Raining On Sunday
TTITLE11=You're Not My God
TTITLE12=Kopierschutz
TTITLE13=Data
EXTD=
EXTT0=
EXTT1=
EXTT2=
EXTT3=
EXTT4=
EXTT5=
EXTT6=
EXTT7=
EXTT8=
EXTT9=
EXTT10=
EXTT11=
EXTT12=
EXTT13=
PLAYORDER=
